<svg width="13" height="13" viewBox="0 0 13 13" fill="none" xmlns="http://www.w3.org/2000/svg">
<path fill-rule="evenodd" clip-rule="evenodd" d="M0 3.25C0 2.80127 0.363769 2.4375 0.8125 2.4375H12.1875C12.6362 2.4375 13 2.80127 13 3.25C13 3.69873 12.6362 4.0625 12.1875 4.0625H0.8125C0.363769 4.0625 0 3.69873 0 3.25ZM1.625 6.5C1.625 6.05128 1.98877 5.6875 2.4375 5.6875H10.5625C11.0112 5.6875 11.375 6.05128 11.375 6.5C11.375 6.94872 11.0112 7.3125 10.5625 7.3125H2.4375C1.98877 7.3125 1.625 6.94872 1.625 6.5ZM4.0625 8.9375C3.61377 8.9375 3.25 9.30128 3.25 9.75C3.25 10.1987 3.61377 10.5625 4.0625 10.5625H8.9375C9.38622 10.5625 9.75 10.1987 9.75 9.75C9.75 9.30128 9.38622 8.9375 8.9375 8.9375H4.0625Z" fill="#0D0C22"/>
</svg>
