<svg width="42" height="16" viewBox="0 0 42 16" fill="none" xmlns="http://www.w3.org/2000/svg">
<path d="M20.3926 9.75L21.3008 9.65625C21.3711 10.2031 21.5293 10.6113 21.7754 10.8809C22.0254 11.1465 22.3145 11.2793 22.6426 11.2793C23.0527 11.2793 23.4062 11.0918 23.7031 10.7168C24 10.3379 24.1484 9.82227 24.1484 9.16992C24.1484 8.55664 24.0039 8.08203 23.7148 7.74609C23.4297 7.40625 23.0703 7.23633 22.6367 7.23633C22.375 7.23633 22.1289 7.31055 21.8984 7.45898C21.6719 7.60352 21.4922 7.80664 21.3594 8.06836L20.5449 7.93945L21.2305 3.52734H24.7285V4.53516H21.9219L21.541 6.84375C21.959 6.48438 22.4023 6.30469 22.8711 6.30469C23.4609 6.30469 23.9727 6.55664 24.4062 7.06055C24.8438 7.56055 25.0625 8.23633 25.0625 9.08789C25.0625 9.92773 24.8438 10.6484 24.4062 11.25C23.9727 11.8477 23.3887 12.1465 22.6543 12.1465C22.0449 12.1465 21.5293 11.9355 21.1074 11.5137C20.6895 11.0879 20.4512 10.5 20.3926 9.75ZM25.8652 7.76367C25.8652 6.32227 26.0586 5.23047 26.4453 4.48828C26.8359 3.74609 27.4102 3.375 28.168 3.375C28.8398 3.375 29.3691 3.67578 29.7559 4.27734C30.2246 5.00391 30.459 6.16602 30.459 7.76367C30.459 9.19727 30.2656 10.2871 29.8789 11.0332C29.4922 11.7754 28.918 12.1465 28.1562 12.1465C27.4844 12.1465 26.9336 11.8184 26.5039 11.1621C26.0781 10.5059 25.8652 9.37305 25.8652 7.76367ZM26.75 7.76367C26.75 9.1582 26.8828 10.0938 27.1484 10.5703C27.418 11.043 27.7617 11.2793 28.1797 11.2793C28.5742 11.2793 28.9043 11.0391 29.1699 10.5586C29.4355 10.0781 29.5684 9.14648 29.5684 7.76367C29.5684 6.36523 29.4336 5.42969 29.1641 4.95703C28.8984 4.48438 28.5527 4.24805 28.127 4.24805C27.7363 4.24805 27.4082 4.48828 27.1426 4.96875C26.8809 5.44922 26.75 6.38086 26.75 7.76367ZM31.3379 7.76367C31.3379 6.32227 31.5312 5.23047 31.918 4.48828C32.3086 3.74609 32.8828 3.375 33.6406 3.375C34.3125 3.375 34.8418 3.67578 35.2285 4.27734C35.6973 5.00391 35.9316 6.16602 35.9316 7.76367C35.9316 9.19727 35.7383 10.2871 35.3516 11.0332C34.9648 11.7754 34.3906 12.1465 33.6289 12.1465C32.957 12.1465 32.4062 11.8184 31.9766 11.1621C31.5508 10.5059 31.3379 9.37305 31.3379 7.76367ZM32.2227 7.76367C32.2227 9.1582 32.3555 10.0938 32.6211 10.5703C32.8906 11.043 33.2344 11.2793 33.6523 11.2793C34.0469 11.2793 34.377 11.0391 34.6426 10.5586C34.9082 10.0781 35.041 9.14648 35.041 7.76367C35.041 6.36523 34.9062 5.42969 34.6367 4.95703C34.3711 4.48438 34.0254 4.24805 33.5996 4.24805C33.209 4.24805 32.8809 4.48828 32.6152 4.96875C32.3535 5.44922 32.2227 6.38086 32.2227 7.76367Z" fill="#3D3D4E"/>
<path d="M10.7408 2C13.0889 2 14.6667 4.235 14.6667 6.32C14.6667 10.5425 8.11856 14 8.00004 14C7.88152 14 1.33337 10.5425 1.33337 6.32C1.33337 4.235 2.91115 2 5.2593 2C6.60745 2 7.48893 2.6825 8.00004 3.2825C8.51115 2.6825 9.39263 2 10.7408 2Z" fill="#9E9EA7" stroke="#9E9EA7" stroke-width="1.5" stroke-linecap="round" stroke-linejoin="round"/>
</svg>
