<svg width="47" height="16" viewBox="0 0 47 16" fill="none" xmlns="http://www.w3.org/2000/svg">
<path d="M8.72998 3C5.0999 3 2.71787 6.21774 1.91761 7.49059C1.82077 7.64462 1.77235 7.72163 1.74525 7.84042C1.72489 7.92964 1.72489 8.07036 1.74525 8.15958C1.77235 8.27837 1.82077 8.35539 1.91761 8.50941C2.71787 9.78226 5.0999 13 8.72998 13C12.3601 13 14.7421 9.78226 15.5424 8.50941C15.6392 8.3554 15.6876 8.27837 15.7147 8.15958C15.7351 8.07036 15.7351 7.92964 15.7147 7.84042C15.6876 7.72163 15.6392 7.64462 15.5424 7.4906C14.7421 6.21775 12.3601 3 8.72998 3Z" fill="#9E9EA7"/>
<path d="M8.72998 10C9.83455 10 10.73 9.10457 10.73 8C10.73 6.89543 9.83455 6 8.72998 6C7.62541 6 6.72998 6.89543 6.72998 8C6.72998 9.10457 7.62541 10 8.72998 10Z" fill="white"/>
<path d="M24.3804 12H23.5132V5.2793C23.314 5.51367 23.0464 5.75391 22.7104 6C22.3745 6.24219 22.0659 6.42578 21.7847 6.55078V5.53125C22.2612 5.25781 22.6812 4.92383 23.0444 4.5293C23.4116 4.13477 23.6694 3.75 23.8179 3.375H24.3804V12ZM31.1538 10.9863V12H26.4956C26.4839 11.5898 26.6069 11.1309 26.8647 10.623C27.1265 10.1152 27.603 9.51562 28.2944 8.82422C29.103 8.01953 29.6323 7.39844 29.8823 6.96094C30.1323 6.51953 30.2573 6.10938 30.2573 5.73047C30.2573 5.29297 30.1284 4.9375 29.8706 4.66406C29.6167 4.38672 29.3022 4.24805 28.9272 4.24805C28.5249 4.24805 28.1948 4.39648 27.937 4.69336C27.6792 4.99023 27.5503 5.41602 27.5503 5.9707L26.6597 5.85938C26.7222 5.03516 26.9546 4.41602 27.3569 4.00195C27.7632 3.58398 28.2964 3.375 28.9565 3.375C29.6753 3.375 30.2183 3.61719 30.5854 4.10156C30.9565 4.58594 31.1421 5.13672 31.1421 5.75391C31.1421 6.30078 30.9976 6.82617 30.7085 7.33008C30.4194 7.83008 29.8706 8.49805 29.062 9.33398C28.5464 9.86133 28.2124 10.2207 28.0601 10.4121C27.9116 10.6035 27.7905 10.7949 27.6968 10.9863H31.1538ZM32.0737 9.73242L32.9409 9.5918C33.1206 10.7168 33.5757 11.2793 34.3062 11.2793C34.7007 11.2793 35.0425 11.1133 35.3315 10.7812C35.6206 10.4453 35.7651 10.0117 35.7651 9.48047C35.7651 8.98047 35.6323 8.57812 35.3667 8.27344C35.1011 7.96875 34.7749 7.81641 34.3882 7.81641C34.2241 7.81641 34.021 7.85547 33.7788 7.93359L33.8784 7.00781L34.0132 7.01953C34.439 7.01953 34.7847 6.88867 35.0503 6.62695C35.3159 6.36523 35.4487 6.01562 35.4487 5.57812C35.4487 5.17578 35.3374 4.85352 35.1147 4.61133C34.8921 4.36523 34.6206 4.24219 34.3003 4.24219C33.9683 4.24219 33.687 4.37109 33.4565 4.62891C33.23 4.88281 33.0854 5.26953 33.0229 5.78906L32.1616 5.60156C32.271 4.86719 32.5171 4.3125 32.8999 3.9375C33.2827 3.5625 33.7456 3.375 34.2886 3.375C34.8589 3.375 35.3433 3.58594 35.7417 4.00781C36.1401 4.42969 36.3394 4.96094 36.3394 5.60156C36.3394 5.99219 36.2534 6.33789 36.0815 6.63867C35.9136 6.93945 35.6772 7.17578 35.3726 7.34766C35.6538 7.42578 35.8862 7.55469 36.0698 7.73438C36.2534 7.91406 36.4019 8.1543 36.5151 8.45508C36.6284 8.75586 36.6851 9.0918 36.6851 9.46289C36.6851 10.252 36.4526 10.8984 35.9878 11.4023C35.5229 11.9023 34.9663 12.1523 34.3179 12.1523C33.7163 12.1523 33.2065 11.9336 32.7886 11.4961C32.3706 11.0586 32.1323 10.4707 32.0737 9.73242ZM37.8042 12V3.41016H38.6655V8.30859L40.7163 5.77734H41.8354L39.8843 8.08594L42.0288 12H40.9683L39.2749 8.81836L38.6655 9.5332V12H37.8042Z" fill="#3D3D4E"/>
</svg>
